<svg xmlns="http://www.w3.org/2000/svg" xmlns:xlink="http://www.w3.org/1999/xlink" style="enable-background:new 0 0 840 979.9" id="SurrealDB" x="0" y="0" version="1.1" viewBox="0 0 840 979.9" xml:space="preserve"><style type="text/css"/><g id="Page-1"><g id="Core" transform="translate(-549.000000, -129.000000)"><g id="drive-document" transform="translate(549.000000, 129.000000)"><linearGradient id="Shape_00000181088702892924178630000002675937823032255667_" x1="176.222" x2="669.861" y1="62.396" y2="917.404" gradientUnits="userSpaceOnUse"><stop style="stop-color:#ff00a0" offset="0"/><stop style="stop-color:#9600ff" offset="1"/></linearGradient><path style="fill-rule:evenodd;clip-rule:evenodd;fill:url(#Shape_00000181088702892924178630000002675937823032255667_)" id="Shape" d="M721.9,105.6H124.1c-47,0-85.4,38.4-85.4,85.4v597.8c0,47,38.4,85.4,85.4,85.4h597.8c47,0,85.4-38.4,85.4-85.4V191 C807.3,144,768.9,105.6,721.9,105.6L721.9,105.6z M636.5,361.8h-427v-85.4h427V361.8L636.5,361.8z M636.5,532.6h-427v-85.4h427 V532.6L636.5,532.6z M508.4,703.4H209.5V618h298.9V703.4L508.4,703.4z"/></g></g></g></svg>