<svg xmlns="http://www.w3.org/2000/svg" xmlns:xlink="http://www.w3.org/1999/xlink" id="SurrealDB" x="0" y="0" version="1.1" viewBox="0 0 840 979.9" xml:space="preserve" style="enable-background:new 0 0 840 979.9"><style type="text/css">.st0{fill:url(#SVGID_1_)}</style><linearGradient id="SVGID_1_" x1="209.53" x2="630.217" y1="139.459" y2="868.111" gradientUnits="userSpaceOnUse"><stop offset="0" style="stop-color:#ff00a0"/><stop offset="1" style="stop-color:#9600ff"/></linearGradient><path d="M264,173.8c14.7,13.3,15.9,36,2.5,50.8l-107.9,120c-6.6,7.2-15.9,11.5-25.8,10.5c-9.9,1.6-19.4-2.2-26.4-10.5	l-60-60c-14.1-12.7-14.1-35.5,0-49.6c14.1-14,36.8-14,50.9,0l33.2,33.1l82.6-91.7C226.3,161.7,249.1,160.5,264,173.8L264,173.8z M264,413.7c14.7,13.2,15.9,36,2.5,50.8l-107.9,120c-6.6,7.2-15.9,11.5-25.8,10.5c-9.9,1.6-19.4-2.2-26.4-10.5l-60-60	c-14.1-12.7-14.1-35.5,0-49.6c14.1-13.9,36.8-13.9,50.9,0l33.2,33.1l82.6-91.8C226.3,401.6,249.1,400.4,264,413.7L264,413.7z M371.8,260.5c0-26.5,21.4-48,48-48h335.9c26.5,0,48,21.5,48,48c0,26.5-21.4,48-48,48H419.8C393.2,308.5,371.8,287,371.8,260.5	L371.8,260.5z M371.8,500.4c0-26.5,21.4-48,48-48h335.9c26.5,0,48,21.4,48,48s-21.4,48-48,48H419.8	C393.2,548.4,371.8,526.9,371.8,500.4z M275.8,740.3c0-26.5,21.4-48,48-48h431.8c26.5,0,48,21.4,48,48c0,26.5-21.4,48-48,48H323.8	C297.3,788.3,275.8,766.8,275.8,740.3z M35.9,740.3c0-39.7,32.2-72,72-72s72,32.2,72,72c0,39.7-32.2,72-72,72S35.9,780,35.9,740.3z" class="st0"/></svg>