<svg xmlns="http://www.w3.org/2000/svg" xmlns:xlink="http://www.w3.org/1999/xlink" id="SurrealDB" x="0" y="0" version="1.1" viewBox="0 0 425 388.9" xml:space="preserve" style="enable-background:new 0 0 425 388.9"><style type="text/css">.st0,.st1{fill-rule:evenodd;clip-rule:evenodd;fill:#fff}.st1{fill:url(#SVGID_1_)}</style><path d="M308.1,0c-36.1,0-72.2,17-95.6,44.6C189.1,17,153,0,116.9,0C51,0,0,51,0,116.9c0,80.8,72.2,146.6,182.8,244.4	l29.8,27.6l29.8-27.6C350.6,261.4,425,195.5,425,116.9C425,51,374,0,308.1,0z" class="st0"/><linearGradient id="SVGID_1_" x1="128.672" x2="329.079" y1="-25.547" y2="321.568" gradientUnits="userSpaceOnUse"><stop offset="0" style="stop-color:#ff00a0"/><stop offset="1" style="stop-color:#9600ff"/></linearGradient><path d="M308.1,0c-36.1,0-72.2,17-95.6,44.6C189.1,17,153,0,116.9,0C51,0,0,51,0,116.9c0,80.8,72.2,146.6,182.8,244.4	l29.8,27.6l29.8-27.6C350.6,261.4,425,195.5,425,116.9C425,51,374,0,308.1,0z" class="st1"/></svg>